<?xml version="1.0" standalone="no"?>
<!DOCTYPE svg PUBLIC "-//W3C//DTD SVG 20010904//EN"
 "http://www.w3.org/TR/2001/REC-SVG-20010904/DTD/svg10.dtd">
<svg version="1.0" xmlns="http://www.w3.org/2000/svg"
 width="494.000000pt" height="131.000000pt" viewBox="0 0 494.000000 131.000000"
 preserveAspectRatio="xMidYMid meet">

<g transform="translate(0.000000,131.000000) scale(0.100000,-0.100000)"
fill="#000000" stroke="none">
<path d="M1856 1180 c-3 -18 -16 -45 -28 -62 l-21 -31 -14 46 c-16 55 -33 70
-33 30 0 -16 -9 -46 -20 -68 -11 -22 -20 -41 -20 -42 0 -2 12 -3 28 -3 17 0
34 -9 46 -25 14 -19 22 -22 32 -15 8 8 14 8 18 1 10 -16 -4 -113 -20 -138 -18
-29 -70 -44 -114 -34 -32 8 -33 9 -7 10 15 1 27 6 27 12 0 11 -58 8 -147 -8
-25 -4 -33 -2 -33 9 0 11 18 17 69 21 39 3 80 11 93 18 13 7 29 12 35 11 17
-4 53 16 53 29 0 6 -7 6 -19 -1 -12 -6 -69 -8 -150 -5 -109 4 -129 2 -125 -9
3 -8 12 -17 20 -20 8 -3 14 -16 14 -30 0 -31 14 -40 65 -42 22 0 66 -5 97 -9
99 -13 132 14 158 128 11 49 11 60 0 67 -10 6 -8 17 10 55 16 33 21 56 17 82
-9 50 -23 61 -31 23z"/>
<path d="M1951 1056 c-14 -17 -7 -21 28 -17 8 2 10 -2 5 -11 -6 -10 -4 -10 9
1 23 18 21 35 -3 28 -10 -3 -21 0 -22 5 -2 6 -10 3 -17 -6z"/>
<path d="M1678 1013 c-35 -22 -35 -31 -1 -39 18 -5 30 -2 38 10 7 9 19 16 28
16 9 0 19 5 22 10 3 6 0 10 -7 10 -7 0 -22 2 -33 5 -11 3 -32 -3 -47 -12z"/>
<path d="M1965 1012 c-3 -3 0 -11 6 -19 9 -9 8 -13 0 -13 -7 0 -10 -10 -7 -25
4 -19 0 -25 -14 -25 -13 0 -17 -5 -13 -20 4 -14 0 -20 -12 -20 -11 0 -15 -5
-11 -15 3 -9 -1 -18 -10 -22 -9 -3 -14 -13 -11 -24 3 -12 -2 -20 -14 -24 -10
-4 -19 -12 -19 -19 0 -7 -6 -13 -12 -13 -24 -1 -42 -8 -57 -21 -11 -11 -15
-11 -22 -1 -5 9 -11 6 -19 -12 -7 -13 -34 -35 -63 -49 -28 -14 -64 -36 -79
-48 l-28 -24 -52 33 c-66 43 -131 132 -159 219 -13 38 -26 67 -30 64 -17 -10
-57 -163 -69 -261 -19 -151 9 -332 70 -453 27 -54 113 -160 130 -160 4 0 3 16
-3 35 -13 44 7 93 52 126 l30 22 -46 35 c-40 31 -44 38 -39 65 15 75 61 99 93
50 23 -37 155 -163 170 -163 7 0 16 6 20 14 4 8 40 49 78 91 39 43 78 87 87
97 9 11 23 18 32 16 8 -2 21 5 29 16 13 18 15 18 43 -8 16 -14 42 -37 58 -49
22 -18 29 -32 30 -62 1 -34 -4 -42 -40 -70 l-40 -31 40 -36 c39 -34 41 -38 40
-91 0 -50 2 -55 18 -46 31 17 116 148 137 212 35 105 54 243 47 338 -7 106
-30 217 -57 278 l-20 46 -23 -65 c-27 -76 -51 -126 -67 -136 -15 -9 -48 34
-49 64 0 15 6 22 20 22 32 0 24 36 -12 61 -53 37 -64 67 -28 76 42 11 16 30
-57 43 -24 4 -45 5 -48 2z m47 -59 c29 -34 48 -83 54 -141 12 -111 -39 -227
-158 -356 l-64 -69 -42 53 c-60 75 -57 91 29 175 82 80 108 130 112 209 2 46
5 56 20 56 14 0 16 4 7 20 -8 15 -6 21 11 30 16 9 18 14 8 26 -17 20 5 17 23
-3z m281 -378 c1 -170 -30 -275 -121 -413 l-35 -54 -13 37 c-7 21 -25 50 -40
66 l-27 28 55 50 c104 95 151 223 152 408 l1 113 14 -58 c7 -31 14 -111 14
-177z m-985 113 c0 -92 5 -128 25 -190 30 -94 74 -165 134 -218 l45 -40 -30
-34 c-16 -19 -33 -49 -37 -66 l-7 -32 -34 48 c-83 117 -125 252 -125 409 -1
82 16 235 26 235 1 0 2 -51 3 -112z m792 8 c0 -3 -4 -8 -10 -11 -5 -3 -10 -1
-10 4 0 6 5 11 10 11 6 0 10 -2 10 -4z"/>
<path d="M1565 1002 c-23 -5 -55 -31 -55 -45 0 -5 9 1 20 14 16 20 19 21 20 7
0 -20 15 -24 25 -8 4 6 11 8 16 5 11 -7 12 6 1 20 -4 6 -16 9 -27 7z"/>
<path d="M1720 770 c0 -11 7 -20 15 -20 17 0 18 2 9 24 -9 23 -24 20 -24 -4z"/>
</g>
</svg>
